<svg xmlns="http://www.w3.org/2000/svg" xmlns:xlink="http://www.w3.org/1999/xlink" viewBox="0 0 2829.26 2800"><defs><style>.cls-1{isolation:isolate;}.cls-2{fill:#f4f7fa;}.cls-3{fill:url(#linear-gradient);}.cls-4{fill:url(#linear-gradient-2);}.cls-5{opacity:0.8;}.cls-5,.cls-9{mix-blend-mode:soft-light;}.cls-25,.cls-6,.cls-9{fill:#fff;}.cls-7{fill:url(#linear-gradient-3);}.cls-8{fill:url(#linear-gradient-4);}.cls-17,.cls-20,.cls-24,.cls-29,.cls-45,.cls-51,.cls-9{opacity:0.3;}.cls-10{fill:url(#linear-gradient-5);}.cls-11{opacity:0.9;}.cls-12{fill:url(#linear-gradient-6);}.cls-13{fill:url(#linear-gradient-7);}.cls-14{fill:url(#linear-gradient-8);}.cls-15{fill:url(#linear-gradient-9);}.cls-16{fill:url(#linear-gradient-10);}.cls-17,.cls-20,.cls-24,.cls-29,.cls-45,.cls-51{mix-blend-mode:multiply;}.cls-17{fill:url(#linear-gradient-11);}.cls-18{fill:url(#linear-gradient-12);}.cls-19{fill:url(#linear-gradient-13);}.cls-20{fill:url(#linear-gradient-14);}.cls-21{fill:url(#linear-gradient-15);}.cls-22{fill:url(#linear-gradient-16);}.cls-23{fill:url(#linear-gradient-17);}.cls-24{fill:url(#linear-gradient-18);}.cls-25{opacity:0.1;}.cls-26{fill:url(#linear-gradient-19);}.cls-27{fill:url(#linear-gradient-20);}.cls-28{fill:url(#linear-gradient-21);}.cls-29{fill:url(#linear-gradient-22);}.cls-30{fill:url(#linear-gradient-23);}.cls-31{fill:url(#linear-gradient-24);}.cls-32{fill:url(#linear-gradient-25);}.cls-33{fill:url(#linear-gradient-26);}.cls-34{fill:url(#linear-gradient-27);}.cls-35{fill:url(#linear-gradient-28);}.cls-36{fill:url(#linear-gradient-29);}.cls-37{fill:url(#linear-gradient-30);}.cls-38{fill:url(#linear-gradient-31);}.cls-39{fill:url(#linear-gradient-32);}.cls-40{fill:url(#linear-gradient-33);}.cls-41{fill:url(#linear-gradient-34);}.cls-42{fill:url(#linear-gradient-35);}.cls-43{fill:url(#linear-gradient-36);}.cls-44{fill:url(#linear-gradient-37);}.cls-46{fill:url(#linear-gradient-38);}.cls-47{fill:url(#linear-gradient-39);}.cls-48{fill:url(#linear-gradient-40);}.cls-49{fill:url(#linear-gradient-41);}.cls-50{fill:url(#linear-gradient-42);}.cls-51{fill:url(#linear-gradient-43);}.cls-52{fill:url(#linear-gradient-44);}.cls-53{fill:url(#linear-gradient-45);}.cls-54{fill:url(#linear-gradient-46);}.cls-55{fill:url(#linear-gradient-47);}.cls-56{fill:url(#linear-gradient-48);}</style><linearGradient id="linear-gradient" x1="277.32" y1="1383.67" x2="2415.1" y2="1383.67" gradientUnits="userSpaceOnUse"><stop offset="0" stop-color="#ab316d"/><stop offset="1" stop-color="#792d3d"/></linearGradient><linearGradient id="linear-gradient-2" x1="714.16" y1="-796.15" x2="1514.06" y2="3405.96" gradientTransform="matrix(-0.96, 0.27, 0.27, 0.96, 2739.59, -444.28)" gradientUnits="userSpaceOnUse"><stop offset="0" stop-color="#ff9085"/><stop offset="1" stop-color="#fb6fbb"/></linearGradient><linearGradient id="linear-gradient-3" x1="596.63" y1="503.76" x2="1015.72" y2="2705.37" gradientTransform="matrix(-0.96, 0.27, 0.27, 0.96, 2739.59, -444.28)" gradientUnits="userSpaceOnUse"><stop offset="0" stop-color="#ffc444"/><stop offset="1" stop-color="#f36f56"/></linearGradient><linearGradient id="linear-gradient-4" x1="1590.55" y1="459.18" x2="1053.71" y2="2716.85" gradientTransform="matrix(1, 0, 0, 1, 0, 0)" xlink:href="#linear-gradient-2"/><linearGradient id="linear-gradient-5" x1="311.97" y1="635.94" x2="2446.29" y2="635.94" gradientUnits="userSpaceOnUse"><stop offset="0" stop-color="#e38ddd"/><stop offset="1" stop-color="#9571f6"/></linearGradient><linearGradient id="linear-gradient-6" x1="2895.92" y1="2562.76" x2="2917.19" y2="2833.35" gradientTransform="translate(-793.71 2.31) rotate(-0.14)" gradientUnits="userSpaceOnUse"><stop offset="0" stop-color="#444b8c"/><stop offset="1" stop-color="#3e4177"/></linearGradient><linearGradient id="linear-gradient-7" x1="2950.81" y1="2713.4" x2="2946.95" y2="2433.16" gradientTransform="translate(-793.71 2.31) rotate(-0.14)" xlink:href="#linear-gradient-3"/><linearGradient id="linear-gradient-8" x1="3297.7" y1="2531.19" x2="3318.96" y2="2801.78" xlink:href="#linear-gradient-6"/><linearGradient id="linear-gradient-9" x1="3319.02" y1="2708.33" x2="3315.16" y2="2428.07" gradientTransform="translate(-793.71 2.31) rotate(-0.14)" xlink:href="#linear-gradient-3"/><linearGradient id="linear-gradient-10" x1="2883.93" y1="2259.41" x2="3091.14" y2="2259.41" xlink:href="#linear-gradient-6"/><linearGradient id="linear-gradient-11" x1="2883.93" y1="2259.41" x2="3091.14" y2="2259.41" xlink:href="#linear-gradient-6"/><linearGradient id="linear-gradient-12" x1="2941.45" y1="2238.98" x2="3358.59" y2="2238.98" xlink:href="#linear-gradient-6"/><linearGradient id="linear-gradient-13" x1="2487.18" y1="1282.98" x2="2017.19" y2="2054.62" gradientUnits="userSpaceOnUse"><stop offset="0" stop-color="#aa80f9"/><stop offset="1" stop-color="#6165d7"/></linearGradient><linearGradient id="linear-gradient-14" x1="2012.3" y1="1655.09" x2="2193.29" y2="1655.09" xlink:href="#linear-gradient-13"/><linearGradient id="linear-gradient-15" x1="5918.82" y1="68.33" x2="5994.29" y2="68.33" gradientTransform="translate(-1958.04 -2827.71) rotate(48.41)" xlink:href="#linear-gradient"/><linearGradient id="linear-gradient-16" x1="4712.29" y1="1541.93" x2="5410.25" y2="1541.93" gradientTransform="matrix(-0.96, 0.28, 0.28, 0.96, 6625.88, -1101.22)" gradientUnits="userSpaceOnUse"><stop offset="0" stop-color="#26264f"/><stop offset="1" stop-color="#444b8c"/></linearGradient><linearGradient id="linear-gradient-17" x1="5171.38" y1="908.63" x2="6114.44" y2="908.63" xlink:href="#linear-gradient-16"/><linearGradient id="linear-gradient-18" x1="4712.29" y1="1541.93" x2="5410.25" y2="1541.93" xlink:href="#linear-gradient-16"/><linearGradient id="linear-gradient-19" x1="6086.79" y1="3639.62" x2="5620.26" y2="3117.26" gradientTransform="matrix(-0.99, -0.11, -0.11, 0.99, 7509.22, -1245.27)" xlink:href="#linear-gradient-16"/><linearGradient id="linear-gradient-20" x1="5224.58" y1="920.65" x2="6114.15" y2="920.65" xlink:href="#linear-gradient-16"/><linearGradient id="linear-gradient-21" x1="2704.53" y1="1412.84" x2="2226.68" y2="2197.38" xlink:href="#linear-gradient-13"/><linearGradient id="linear-gradient-22" x1="2071.1" y1="1794.24" x2="2720.73" y2="1794.24" xlink:href="#linear-gradient-13"/><linearGradient id="linear-gradient-23" x1="-5982.59" y1="206.24" x2="-5966.33" y2="114.19" gradientTransform="matrix(-0.86, -0.52, -0.52, 0.86, -2532.49, -1298.01)" xlink:href="#linear-gradient-3"/><linearGradient id="linear-gradient-24" x1="3249.96" y1="1200.04" x2="3185.68" y2="1608.98" gradientTransform="matrix(-1, 0, 0, 1, 5622.7, 0)" xlink:href="#linear-gradient-3"/><linearGradient id="linear-gradient-25" x1="3200.68" y1="1258.87" x2="3288.15" y2="1258.87" gradientTransform="matrix(-1, 0, 0, 1, 5622.7, 0)" gradientUnits="userSpaceOnUse"><stop offset="0" stop-color="#40447e"/><stop offset="1" stop-color="#3c3b6b"/></linearGradient><linearGradient id="linear-gradient-26" x1="3247.68" y1="1255.32" x2="3249.05" y2="1366.11" gradientTransform="matrix(-1, 0, 0, 1, 5622.7, 0)" xlink:href="#linear-gradient-3"/><linearGradient id="linear-gradient-27" x1="3211.15" y1="1287.91" x2="3286.7" y2="1287.91" xlink:href="#linear-gradient-25"/><linearGradient id="linear-gradient-28" x1="3261.96" y1="1295.14" x2="3278.65" y2="1295.14" gradientTransform="matrix(-1, 0, 0, 1, 5622.7, 0)" xlink:href="#linear-gradient-3"/><linearGradient id="linear-gradient-29" x1="1894.36" y1="1708.78" x2="1904.98" y2="1648.65" gradientTransform="matrix(1, 0, 0, 1, 0, 0)" xlink:href="#linear-gradient-3"/><linearGradient id="linear-gradient-30" x1="-630.75" y1="2593.53" x2="-612.06" y2="2929.98" gradientTransform="matrix(-1, 0, 0, 1, -48.54, 0)" gradientUnits="userSpaceOnUse"><stop offset="0" stop-color="#444b8c"/><stop offset="1" stop-color="#26264f"/></linearGradient><linearGradient id="linear-gradient-31" x1="-598.95" y1="2732.66" x2="-587.81" y2="2480.85" gradientTransform="matrix(-1, 0, 0, 1, -48.54, 0)" xlink:href="#linear-gradient-3"/><linearGradient id="linear-gradient-32" x1="-292.45" y1="2574.74" x2="-273.76" y2="2911.17" xlink:href="#linear-gradient-30"/><linearGradient id="linear-gradient-33" x1="-301.89" y1="2745.8" x2="-290.75" y2="2494" gradientTransform="matrix(-1, 0, 0, 1, -48.54, 0)" xlink:href="#linear-gradient-3"/><linearGradient id="linear-gradient-34" x1="-633.95" y1="2341.71" x2="-420.03" y2="2308.29" xlink:href="#linear-gradient-30"/><linearGradient id="linear-gradient-35" x1="-616.45" y1="2116.87" x2="-1.43" y2="2688.43" xlink:href="#linear-gradient-30"/><linearGradient id="linear-gradient-36" x1="-290.85" y1="1757.81" x2="-421.68" y2="1572.46" xlink:href="#linear-gradient-30"/><linearGradient id="linear-gradient-37" x1="362.24" y1="2172.33" x2="536.16" y2="1338.02" gradientTransform="matrix(1, 0, 0, 1, 0, 0)" xlink:href="#linear-gradient-3"/><linearGradient id="linear-gradient-38" x1="248.7" y1="2148.67" x2="422.62" y2="1314.35" gradientTransform="matrix(1, 0, 0, 1, 0, 0)" xlink:href="#linear-gradient-3"/><linearGradient id="linear-gradient-39" x1="254.96" y1="2149.97" x2="428.88" y2="1315.65" gradientTransform="matrix(1, 0, 0, 1, 0, 0)" xlink:href="#linear-gradient-3"/><linearGradient id="linear-gradient-40" x1="-915.6" y1="1591.26" x2="-517.21" y2="1591.26" gradientTransform="matrix(-1, 0, 0, 1, -48.54, 0)" xlink:href="#linear-gradient-13"/><linearGradient id="linear-gradient-41" x1="-637.85" y1="1416.78" x2="-407.21" y2="1154.95" gradientTransform="matrix(-1, 0, 0, 1, -48.54, 0)" xlink:href="#linear-gradient-3"/><linearGradient id="linear-gradient-42" x1="1740.98" y1="4506.32" x2="1981.64" y2="4705.76" gradientTransform="matrix(-0.86, 0.5, 0.5, 0.86, -1439.31, -99.46)" xlink:href="#linear-gradient-3"/><linearGradient id="linear-gradient-43" x1="-915.6" y1="1589.72" x2="-550.93" y2="1589.72" gradientTransform="matrix(-1, 0, 0, 1, -48.54, 0)" xlink:href="#linear-gradient-13"/><linearGradient id="linear-gradient-44" x1="-792.39" y1="1601.77" x2="-551.73" y2="1801.2" gradientTransform="matrix(-1, 0, 0, 1, -48.54, 0)" xlink:href="#linear-gradient-3"/><linearGradient id="linear-gradient-45" x1="1356.1" y1="1020.28" x2="1351.4" y2="1866.34" gradientTransform="matrix(1, 0, 0, 1, 0, 0)" xlink:href="#linear-gradient-16"/><linearGradient id="linear-gradient-46" x1="1583.02" y1="1021.54" x2="1578.32" y2="1867.6" gradientTransform="matrix(1, 0, 0, 1, 0, 0)" xlink:href="#linear-gradient-16"/><linearGradient id="linear-gradient-47" x1="1358.76" y1="1015.06" x2="1354.06" y2="1861.12" xlink:href="#linear-gradient-13"/><linearGradient id="linear-gradient-48" x1="1585.68" y1="1016.32" x2="1580.98" y2="1862.38" xlink:href="#linear-gradient-13"/></defs><g class="cls-1"><g id="Layer_2" data-name="Layer 2"><g id="Illustration"><path class="cls-2" d="M1921.06,59.72c-211.6-47.21-431.6-69.83-646.71-55.41C1083.7,17.09,867.59,52,714.17,177c-73.11,59.55-160.3,166.57-184.22,261,0,0-125.89,497-377.65,603.44S-274.3,2965.29,1634.92,2787.81c0,0,1121.37-46.51,1188.89-1386.11,16.31-323.61,7.2-679.36-188.2-949.95C2485.88,244.39,2276.09,152.2,2035,87.68Q1978.54,72.57,1921.06,59.72Z"/><path class="cls-3" d="M2335.28,587.05,376.86,533.87h0l-2.46-.77c-31.72-.87-60.48,13.11-77.94,35.87-11.58,14.64-19.13,32.5-19.13,52.67V2144.13c0,51.7,43.61,92,96.47,90.09L2333,2162.38c45.17-1.66,82.08-41.54,82.08-89.08V673C2415.1,625.49,2380.43,588.29,2335.28,587.05Z"/><path class="cls-4" d="M1932.9,1963.73c-167.27,5.5-349.6-109-414.65-260.52-118.28-275.56,186.06-405.45,228-647.71,34.07-197-70.82-393-29.32-589.82,36.51-173.16,182.57-326.6,359.86-355.46,152.88-24.89,323.44,55.56,400.79,193.18,57.62,102.54,86.41,266,65.41,382.6-17.16,95.28-50.12,185.94-108.17,264.08-47.23,63.57-115.06,115.53-143.46,191.45-53.81,143.85,21.87,310.17,15.27,455.91-4.61,101.85-60.65,216.74-140.3,280.38C2097,1933.17,2015.73,1961,1932.9,1963.73Z"/><g class="cls-5"><path class="cls-6" d="M1915.7,1919.16a5.28,5.28,0,0,0,3.84-5.27c-.07-2-6.71-204.78,18.21-477.79,23-251.81,78.29-616.59,211.23-924.36a5.29,5.29,0,0,0-9.71-4.19c-133.51,309.1-189,675.12-212.07,927.75-25,273.63-18.3,476.93-18.23,479a5.29,5.29,0,0,0,5.47,5.1A5.18,5.18,0,0,0,1915.7,1919.16Z"/></g><path class="cls-7" d="M2139.18,1068c235.21-368.91,534.33-318.75,608.24-188.75,73.19,128.74,270.12,851.72-688.06,910.38a35.83,35.83,0,0,1-36.85-26.58C1998.56,1672.32,1943.3,1375.25,2139.18,1068Z"/><g class="cls-5"><path class="cls-6" d="M2052.19,1761.12a5.29,5.29,0,0,0,3.7-3.86c.22-.92,22.89-93.53,96-227.27,67.47-123.41,192.94-308.08,407.51-487a5.29,5.29,0,0,0-6.78-8.12c-216,180.13-342.31,366.14-410.23,490.46-73.69,134.88-96.57,228.55-96.79,229.48a5.29,5.29,0,0,0,6.58,6.32Z"/><path class="cls-6" d="M2237.27,1390a5.05,5.05,0,0,0,1.37-.61,5.28,5.28,0,0,0,1.67-7.28c-.92-1.48-91.38-149.69,20.06-294.75a5.29,5.29,0,0,0-8.39-6.45c-60.62,78.91-63,158.12-54.36,210.67,9.37,56.86,32.74,94.57,33.73,96.15A5.29,5.29,0,0,0,2237.27,1390Z"/><path class="cls-6" d="M2498.2,1280.26c33.89-9.6,71.74-28.53,110.7-63a5.29,5.29,0,1,0-7-7.92c-138.43,122.58-262.82,43.92-264.06,43.11a5.29,5.29,0,0,0-5.78,8.85c1.35.88,33.52,21.54,83.95,26.55A220.81,220.81,0,0,0,2498.2,1280.26Z"/><path class="cls-6" d="M2299,1585.84c33.89-9.6,71.74-28.53,110.71-63a5.28,5.28,0,1,0-7-7.91c-138.43,122.58-262.82,43.91-264.06,43.1a5.29,5.29,0,1,0-5.78,8.86c1.34.88,33.51,21.54,84,26.54A220.73,220.73,0,0,0,2299,1585.84Z"/></g><path class="cls-8" d="M2446.29,2073.3c0,47.54-36.35,87.42-81.51,89.08L406.9,2234.22c-52.85,1.94-94.93-38.39-94.93-90.09V623.37c0-51.7,42.15-92.42,95-91L2365.21,586.3c45.16,1.24,81.08,40.78,81.08,88.33Z"/><path class="cls-9" d="M2387.39,2025.18c0,44.91-34.21,82.52-77,84L464.56,2172.71c-49.59,1.71-90.22-36.3-90.22-84.9V664.2c0-48.6,40.79-87,90.38-85.68l1845.46,47.67c42.76,1.11,77.21,38.41,77.21,83.32Z"/><path class="cls-10" d="M2446.29,673v66.42L312,693.85V621.64c0-51.7,44.62-90.62,97.47-89.17l1957.72,53.88C2412.31,587.59,2446.29,625.49,2446.29,673Z"/><path class="cls-6" d="M459.28,617.69c0,19.95-16.54,35.74-37,35.27s-37.07-17.07-37.07-37.07,16.61-35.79,37.07-35.27S459.28,597.74,459.28,617.69Z"/><path class="cls-6" d="M571.5,620.42c0,19.87-16.4,35.59-36.66,35.13s-36.76-17-36.76-36.91,16.47-35.65,36.76-35.12S571.5,600.56,571.5,620.42Z"/><path class="cls-6" d="M682.77,623.13c0,19.78-16.26,35.44-36.35,35S610,641.2,610,621.36s16.33-35.49,36.45-35S682.77,603.35,682.77,623.13Z"/><g class="cls-11"><polygon class="cls-6" points="980.68 2067.82 443.63 2084.42 443.63 1249.57 980.68 1249.77 980.68 2067.82"/><polygon class="cls-6" points="2349.27 1198.78 443.63 1193.91 443.63 796.89 2349.27 830.28 2349.27 1198.78"/><polygon class="cls-6" points="2349.27 1618.93 1029.18 1638.08 1029.18 1249.81 2349.27 1250.43 2349.27 1618.93"/><polygon class="cls-6" points="2349.27 2025.31 1029.18 2066.27 1029.18 1685.26 2349.27 1663.7 2349.27 2025.31"/></g><path class="cls-12" d="M2150.15,2693s-85.48,39.1-86.87,45.31,55-2.21,78.08-1.37,42-6,39.87-15.77-10.24-34.28-10.24-34.28Z"/><path class="cls-13" d="M2147,2661.41l5.3,38.52s13.56,4.79,22.64-.93l3.79-42.27Z"/><path class="cls-14" d="M2550,2661.37l10,16a19.06,19.06,0,0,1,2.32,14.94c-3.45,13.3-10.34,39.21-13.36,46-4.1,9.21-59.47,14.81-59.47,14.81s-5-6.94,6.52-15.36,18.87-9.76,22.9-22.16,6.65-47.44,6.65-47.44Z"/><path class="cls-15" d="M2508.46,2620.85c3.64,2.9,21.56,56.84,21.56,56.84s5.77,7.35,16.69-3.54,4.93-4.89,4.93-4.89l-2.17-53.09Z"/><path class="cls-16" d="M2098,1887.38c-4.24,114.95-4.12,239.83,2.81,373.22,7.81,150.21,23.11,289,42.27,414.85,7,.21,14.37.23,22.07,0q7.79-.24,15.1-.77a956.76,956.76,0,0,0,31.46-101.49,974.75,974.75,0,0,0,21.86-118.8c16.17-130.23-3.18-141.54,10-238.05,11.64-85.48,28.48-88.86,48-210.22,21.14-131.69,5.12-151.4-2.67-158.52C2255.69,1817.3,2178.07,1838.17,2098,1887.38Z"/><path class="cls-17" d="M2288.83,1847.6c-31.6-28.9-103.69-11.19-179.76,33.21,87.86,94.47,97.57,155.87,87.16,195.75-11.77,45.07-47.84,58.13-47.58,107.38.31,60.53,55,76.43,54,140.48-.67,42.36-24.67,42-30.21,94.3-6.56,61.91,24.85,83.16,14.8,129-4.32,19.71-16.73,45.48-52.19,72.09,2.61,18.79,5.28,37.4,8.06,55.66,7,.21,14.37.23,22.07,0,5.19-.16,10.23-.42,15.09-.77a954.17,954.17,0,0,0,31.47-101.49,974.4,974.4,0,0,0,21.86-118.8c16.17-130.23-3.18-141.54,10-238.05,11.64-85.48,28.48-88.86,48-210.23C2312.64,1874.42,2296.62,1854.71,2288.83,1847.6Z"/><path class="cls-18" d="M2152.28,1885.32a2584.74,2584.74,0,0,1,230.63,411.75,2582,2582,0,0,1,125,344.71,46.17,46.17,0,0,0,25.27,3.85,47,47,0,0,0,28.58-15.53,743.19,743.19,0,0,0,6.12-183.29c-2.66-29.17-7.36-77.76-26.1-137.7-21-67.14-35.33-70.88-62.68-141.91-28.38-73.72-21.59-92.15-48.83-184.42A1218,1218,0,0,0,2369.56,1821Z"/><path class="cls-19" d="M2664.72,1482.39c-.84,23.55-14.35,36.88-33.77,62.22q-2.43,3.18-4.86,6.45c-22.43,30.11-44.88,66-65.15,105-30.39,58.49-55.91,124.13-69.2,188.22-.18.74-.35,1.51-.5,2.29-2.32,11.45-4.26,22.84-5.74,34.12-6.84,51.86-4.8,103.22-43.5,145.84-7.44,8.18-30.92,34.06-54.08,29.23-27.57-5.75-25.1-48.83-61.73-66.81-12-5.92-16.18-3.17-68.85-2.39-32.92.45-66.2.84-101.91-3.21-33.81-3.81-82.53-9.34-87.64-30.67-2-8.5,3.77-16,8.46-23.2,20.66-31.76,17.77-54.08,28.83-101.77,20.7-89.09,67.13-167.91,66.53-177.15a.77.77,0,0,0-.07-.28.57.57,0,0,0-.07-.25l-.11-.17a.36.36,0,0,0-.18-.14c-2.39-1.24-12.37,14.63-21.32,27.74-.71,1-1.41,2-2.19,3.07C2113.19,1728,2067.75,1726,2012.3,1715c-17.84-3.53-36.73-8-56.62-12.06-35.5-7.26-76.56-62.36-77.27-89.19-.78-28.09,52.24-13.15,101.77-45.37,144.12-93.77,75.66-140.8,208.81-201.71,33-15.13,65.43-20.77,112-28.91,19.18-3.39,37.05-5.71,53.8-7.26,42-4,86.72-4.73,111.71-2.33a235.41,235.41,0,0,1,50.31,10.89C2593.48,1364.19,2666.73,1425.7,2664.72,1482.39Z"/><path class="cls-20" d="M2193.29,1616.5c-7.23,11.35-14.49,22.67-21.68,34a0,0,0,0,0,0,0c0-.11,0-.22,0-.32s0-.18-.08-.25-.07-.1-.1-.18a.42.42,0,0,0-.18-.14c-2.39-1.23-12.37,14.63-21.32,27.75-.71,1-1.41,2-2.19,3.06C2113.19,1728,2067.75,1726,2012.3,1715c26.26-5.5,43.25-10.75,62.71-26.44,49.53-39.91,57-100.65,85.77-99.91C2174.39,1589,2185.42,1602.89,2193.29,1616.5Z"/><path class="cls-21" d="M1987.51,1685.72s-31.44-13.27-48.21-27.52-32.93-6.25-33.69,2.52,27.48,30.06,40.06,34.4S1987.51,1685.72,1987.51,1685.72Z"/><path class="cls-22" d="M2600.21,2020.14l7.05-11.89c11.24-19,4.41-43.15-15.25-54l-770.87-424.34-43,79.78,766.39,425C2564.07,2045.54,2589,2039,2600.21,2020.14Z"/><path class="cls-23" d="M1228.73,1766.61c223.52,128.25,509.22,46.44,637.24-189.78,131.1-241.89,44.09-546.11-193.25-672-233.07-123.68-516-24.08-633.32,215.37C924.8,1354.15,1009.08,1640.57,1228.73,1766.61Zm34.2-66.38c-185.59-105.87-256.56-347.54-159.27-544.58,99.19-200.89,337-283.33,532.09-179.12,198.07,105.8,271,360,162,562.63C1691,1737.78,1451.26,1807.67,1262.93,1700.23Z"/><path class="cls-24" d="M1821.14,1529.94l98.29,54.1c.16,35,10.13,57.16,21.77,71.81,43.79,55.15,124.72,22.1,212.69,94.48,44.15,36.31,31.26,50.8,73.94,78.64,70.56,46,114.45,12.09,176.74,53.58,63,42,57.28,102.78,96.75,108.86,16.88,2.6,40.92-5,74.57-46l16.12,8.87c19.66,10.82,26.49,35,15.25,54l-7.05,11.89c-11.21,18.9-36.14,25.4-55.69,14.56l-766.39-425Z"/><path class="cls-25" d="M1235.87,1730.68c194.79,111.24,443,39.13,553.58-166.37,112.94-209.77,37.47-473.11-167.74-582.6-202-107.77-448.1-22.23-550.62,185.71C970.61,1371.23,1044,1621.12,1235.87,1730.68Z"/><path class="cls-26" d="M1208,1784.88c223.51,128.26,509.21,46.44,637.24-189.77,131.1-241.9,44.09-546.11-193.26-672.06-233.07-123.67-516-24.07-633.31,215.38C904,1372.43,988.3,1658.84,1208,1784.88Zm34.19-66.37c-185.59-105.87-256.56-347.55-159.27-544.58C1182.06,973,1419.9,890.6,1615,994.8c198.06,105.8,271,360,162,562.64C1670.24,1756.05,1430.48,1825.94,1242.14,1718.51Z"/><path class="cls-27" d="M1220,1761.46c211.1,120.88,480.54,43.23,601-179.7,123.21-228,41.19-514.45-182.2-633.28-219.6-116.8-486.62-23.32-597.53,202.48C932.78,1371.91,1012.36,1642.55,1220,1761.46Zm22.12-43c-185.59-105.87-256.56-347.55-159.27-544.58C1182.06,973,1419.9,890.6,1615,994.8c198.06,105.8,271,360,162,562.64C1670.24,1756.05,1430.48,1825.94,1242.14,1718.51Z"/><path class="cls-28" d="M2716.47,1882.51c-58.06,53.69-140.13,52.21-176.58,49q-7.18-18-14.42-35.89c.89-.64,1.77-1.31,2.61-2,59.72-44.95,93-110.91,79.67-167.39-6.83-29-25.24-52.17-46.81-70.22-39.2-32.85-88.91-48.68-98.5-51.71-.77-.25-1.55-.5-2.29-.71-44-13.54-59.33-4.58-74.88-21.19-48.22-51.54,12.62-231.68,100.51-244.19a96,96,0,0,1,31,.84c26.05,4.8,54.75,19.6,87.5,44.63,37.29,28.56,88.69,82.21,127.26,166.11C2765.16,1623,2813.07,1793.11,2716.47,1882.51Z"/><path class="cls-29" d="M2628.48,1856.49c-30.38,15.59-66.1,28.7-100.4,37.13,59.72-44.95,93-110.91,79.67-167.39-6.83-29-25.24-52.17-46.81-70.22-30.39,58.49-55.91,124.13-69.2,188.22-.18.74-.35,1.51-.5,2.29-2.32,10.36-4.23,21.15-5.74,32.47-6.84,51.82-4.8,103.18-43.5,145.8-7.44,8.18-30.92,34.05-54.08,29.23-27.57-5.75-25.1-48.83-61.73-66.81-12-5.92-16.18-3.17-68.85-2.4-32.92.46-66.2.85-101.91-3.2-30.08-3.39-71.85-8.18-84.33-24.19,54.25-1.48,90.5-16.53,114.64-31.8,41.28-26,47.38-52.49,93.6-70.36,60-23.2,88.91,6.27,118.66-17.52,35.43-28.34,4.05-77.66,30.57-163.29,2.29-7.37,12.16-39.31,31.58-70.86,18.86-30.78,46.78-61.2,85.53-68.14,25.8-4.62,57.46,1,80.41,15.61,9.55,6.1,17.59,13.75,23,22.85,14.56,24.25-14,57.64,3.67,84.43s29.43,26.16,52,48.47C2756.24,1757.68,2670.22,1835.1,2628.48,1856.49Z"/><path class="cls-30" d="M2535.89,1923.1l-7.35-20.71s-9.1.38-20-7.42c-5.93-4.24-16.44-5.51-19.5-4.66s-14.6.34-1.44,6.62,13.05,10.94,7.57,16.09-26.36,16.24-33.87,16.77,6.07,12.15,13.65,13.64,20,3.36,35.36-5.69C2515.94,1934.44,2535.89,1923.1,2535.89,1923.1Z"/><path class="cls-31" d="M2398.31,1250.51a272.36,272.36,0,0,0,4.87,54.42c2.81,14.5,4.84,18.24,7.43,21.28,3.9,4.58,9.81,8.41,43.19,16.69,18.16,4.5,20.5,4.38,20.9,6.18,2,8.8-47.57,38.77-98.75,31.55-31.32-4.42-59.81-22.29-58.06-31.68s33-4.37,42.36-21.46c6.49-11.88-.78-28.75-9.37-42.73C2359.2,1269.17,2390,1266.11,2398.31,1250.51Z"/><path class="cls-32" d="M2340.18,1259.72c-7.39-9.82-7.84-27,.67-37.79,7.33-9.33,18.87-10.66,25.77-11.46,20-2.31,45.25,6,54,24.46,5.2,10.91-6.06,33.59-7.82,37.67-2,4.61-5.61,6.19-9,9.67-4.64,4.84-11.9,12.52-23.76,25.38a81.7,81.7,0,0,0-4.55-13.58,72.42,72.42,0,0,0-9.5-16C2355.65,1265.4,2347.19,1269,2340.18,1259.72Z"/><path class="cls-33" d="M2397,1296.84s-13.15,21.58-39.34,19.87c-23.45-1.52-26.88-54.11-11.91-65.27,5-3.72,15-5.26,23.14-3,4.81,1.34,6.44,3.34,14.33,5.39,7.29,1.89,9.34,1.08,11.54,2.93,2.75,2.31,4.76,8,.17,23.36,4.48-4.53,9.85-6.27,13.65-4.47a7.88,7.88,0,0,1,3.12,3C2415,1284.71,2409.53,1292.39,2397,1296.84Z"/><path class="cls-34" d="M2395.85,1253.63c-1.13.85,2.33,5.07,2.58,11,.51,11.59-11.23,25.5-23.19,26.68-7.08.7-9-3.57-20.72-4.8a53.46,53.46,0,0,0-17.07,1c-3.67,12.71-.21,25.39,8.28,31.27,9.15,6.33,20.84,2.49,25.72.88,3.27-1.07,13.74-4.49,19.22-14.1,5.7-10,.1-16,6.65-22.81,3.3-3.41,7.63-4.89,11.85-11.5a32.61,32.61,0,0,0,2.38-4.45C2405.5,1260.41,2397.49,1252.41,2395.85,1253.63Z"/><path class="cls-35" d="M2346,1292.24s5.06,2.65,13.81,2.16c.43,0,.9.1.95.32.2.83-5.41,4.55-10.59,3.1-3.67-1-6.53-4.51-6-5.4C2344.32,1292.05,2345.15,1292.1,2346,1292.24Z"/><path class="cls-36" d="M1915.58,1691.55S1872,1682.94,1875,1668s3.53-26.3,14.54-17.56S1944.23,1685.17,1915.58,1691.55Z"/><path class="cls-37" d="M535.39,2713.17s-2.33,18.6-.77,24.83,55.65,10.73,74,8.56-10.93-20.91-22.62-24.43S535.39,2713.17,535.39,2713.17Z"/><path class="cls-38" d="M562.61,2682.14l-5.7,37.31s-14.53,6.54-21.52.08l-.77-39.06Z"/><path class="cls-39" d="M257.78,2680.47s11.47,8.52,8.41,18.71-29.83,51.06-48.91,62.65-13.1-12.56-7.54-27.61S229.48,2686,235,2680.47,257.78,2680.47,257.78,2680.47Z"/><path class="cls-40" d="M278.42,2639.48c-5.55,15.46-10.88,28.17-15.06,37.55-9.23,20.74-14.27,28.52-20,35.27-5,5.87-16.78,18.41-20,16.33s5.41-17.37,22.05-62c2.41-6.48,10-27.13,10-27.13h22.91Z"/><path class="cls-41" d="M675.86,1993.48a966.51,966.51,0,0,1,2.07,172.37c-7.4,95.37-26.47,155.72-50.38,257.41-14.62,62.14-34.31,153.61-52.13,268a50.33,50.33,0,0,1-32,6.26,48.63,48.63,0,0,1-19.2-7.29c-46.76-142.88-32.95-231.43-10.38-286.59,9.62-23.52,21.28-42.07,27.51-78.22,8.25-47.82-2-74.55-16.49-185.33-10.37-79-8.57-91.16-1.68-103C550.78,1989.75,635.12,1990.68,675.86,1993.48Z"/><path class="cls-42" d="M514.91,2010.1c-28.65,147.93-56.76,225.62-78,269.57a739.92,739.92,0,0,0-39.3,95.93c-14.65,44.37-20.76,77-23.88,91.38-9.88,45.35-34.29,111.55-100,198.39-.82.49-12,6.82-22.72,1.17a22,22,0,0,1-9.2-9.54c8.59-83,18.45-152.79,27-206.64,1.8-11.29,9.7-60.7,22.1-126,4.85-25.54,12-63,20.48-101.42,10.6-47.88,26.86-113,51.91-191.06Z"/><path class="cls-43" d="M539.31,1425c16.24-15,47.32-32.33,62.91-72.57,4.69-12.11,21.32-55-3.2-87.86-14.56-19.49-41.59-32.72-65.42-28-20.36,4-23.55,18.19-58.15,46.73-13.47,11.11-35.12,29-59.21,38.9-41.28,17-66.08,1-107.52,2.83-50.92,2.24-110.06,30.65-138.55,72-50.58,73.33,22.68,147.73-32.71,233.64-18.15,28.14-27.1,21.83-70.09,76.32S2.79,1788.72,6.62,1822.15c5.32,46.39,55.29,90.71,102.34,93.72,46,2.94,75.19-33.22,98.59-17.4,16.65,11.25,7.13,33.15,24.82,59.47,22.8,33.92,67.62,40.68,74.86,41.77,67.19,10.14,157.78-68.65,196.26-162C572.87,1669.41,451,1506.61,539.31,1425Z"/><path class="cls-44" d="M815,1471.7c.46-47-106.27-84.53-155.1-96.63-76-18.82-136.79-7-151.57-3.88C413.6,1391.27,354.6,1448.11,332.39,1472c18.19,11.84,68.37,48,93.22,116.5,7.73,21.33,30.57,94.23-2.1,162.51-18.82,39.35-52.12,68.89-77.41,91.33-37.93,33.65-57.57,38.82-70.29,69-13.85,32.83.11,48.84-17.09,71.31-18.47,24.14-40.11,12.92-71.42,37.33-32.07,25-20.66,45.58-49.84,73.2-42.41,40.15-98.63,27.11-101.24,45.17-2.26,15.54,37.7,36.62,71.64,45.17,67.23,16.94,125.86-11.48,143.3-20.25,48.27-24.25,39.94-39.95,76.74-58.44,61.63-30.95,103.75,3.5,244.12,7,76,1.93,114.45,2.36,135.51-23.36,19.23-23.49,9.12-49.26-2.42-160.31-5.49-52.85-7.48-106-11.52-159-11.45-149.87-11.8-163.06-1.64-183.78C728.37,1511.17,814.59,1513.86,815,1471.7Z"/><g class="cls-45"><path class="cls-46" d="M137.46,2093.16c29.18-27.62,17.77-48.2,49.84-73.2,31.31-24.41,52.95-13.19,71.42-37.33,17.2-22.47,3.24-38.48,17.09-71.31,12.72-30.15,32.36-35.32,70.29-69,25.29-22.44,58.59-52,77.41-91.33,32.67-68.28,9.83-141.18,2.1-162.51-24.85-68.54-75-104.66-93.22-116.5,1.75-1.89,3.82-4,6-6.3,119.8,16.46,189.65,85.69,198.29,106.19,20,47.38-11.64,64.79-12.46,201.45-.39,65.32,6.66,91.11-14.53,118.37-24.24,31.18-52.18,21.53-87.23,62.3-26.93,31.32-22.62,51.18-47.76,64.38-27,14.19-44.27-2.35-74.77,4.16-50.95,10.86-61.84,69.61-95.53,101.76-25.47,24.3-72.56,41.29-165.44,23-2.15-3.12-3.19-6.18-2.77-9C38.83,2120.27,95.05,2133.31,137.46,2093.16Z"/></g><path class="cls-47" d="M500.37,1608.76c12.74,27-45.79,90-110.83,119.94-13.25,6.1-108.42,49.86-150.84,7.78-35-34.77-12.43-106.67-4.35-132.34C274,1478.1,395.78,1414,446.82,1390.86c38.08,95.24,15.65,137.67,6.82,150.93-9.22,13.84-35,42.91-62.3,68.53-19.23,18-31.2,26.78-29.59,29.59,2,3.5,24.54-3.11,112.09-45.72C484,1595.83,496,1599.53,500.37,1608.76Z"/><path class="cls-48" d="M866.71,1453.38l-43,213.94a17.55,17.55,0,0,1-13.53,13.7l-320.31,68.75a17.56,17.56,0,0,1-21.19-18.52l16.91-217.58A17.53,17.53,0,0,1,498.92,1498c50.81-12.54,246.38-59.51,349.53-65.61A17.55,17.55,0,0,1,866.71,1453.38Z"/><path class="cls-49" d="M547.22,1297.14s-6,48.3-23.87,59.37S476.7,1382,473.53,1386s110.44,16.13,166.74-12.28h0c-18.55-3.87-23.6-5.29-23.6-5.29-5-1.43-14.43-4.07-23.85-9.44a81,81,0,0,1-26.21-24.24l.2-26.75Z"/><path class="cls-50" d="M544.51,1314.25s11.62,16,29.85,9.3c16.32-6,6.58-48.11-6.37-52.92-4.31-1.6-12.24-.89-17.55,2.42-3.72,2.32-13.68,14.69-8,28.55-4.13-1.2-7.76-.11-8.66,1.93-1.16,2.59,2.33,6.12,3.12,6.92A13.92,13.92,0,0,0,544.51,1314.25Z"/><path class="cls-51" d="M578.25,1638.35c34.4-9.69,62.93,14.39,90.34-4.67,28.07-19.52,9.75-52.87,38.94-85.66,31.2-35.07,70.8-17.89,99.68-49.85,10.72-11.86,20.37-31.19,20.52-64.15,7.24-.7,14.17-1.25,20.72-1.64a17.55,17.55,0,0,1,18.26,21l-43,213.94a17.55,17.55,0,0,1-13.53,13.7l-307.83,66.07C524.12,1670.83,553.13,1645.44,578.25,1638.35Z"/><path class="cls-52" d="M846.32,1567.19s20.43-18.88,22.65-40.82-13.19-39.5-28.13-44-22.91,2.12-12.88,23.73S853.89,1541.75,846.32,1567.19Z"/><path class="cls-53" d="M1550.72,1456.22l-22-4.3a177.84,177.84,0,0,0-2.32-30.3l21.19-7.4a11.1,11.1,0,0,0,6.73-14.13l-12.54-36.4a11.05,11.05,0,0,0-14-7l-21.29,7.4a177.49,177.49,0,0,0-17.07-25.32l14.77-17.32a11.35,11.35,0,0,0-1.19-15.82l-29-25.59a11,11,0,0,0-15.63,1l-14.82,17.38a175.27,175.27,0,0,0-27.33-13.68l4.14-22.65a11.48,11.48,0,0,0-8.93-13.28l-37.89-7.71a11,11,0,0,0-13,8.85l-4.11,22.68a174.61,174.61,0,0,0-30.48,1.93l-7.72-21.9a11.4,11.4,0,0,0-14.35-7.12l-36.52,12.51a11.14,11.14,0,0,0-6.77,14.37l7.7,21.69a172.29,172.29,0,0,0-25.36,17.24l-17.4-15.09a11.2,11.2,0,0,0-15.89,1l-25.1,29.43a11.39,11.39,0,0,0,1.39,16l17.3,14.92a173.1,173.1,0,0,0-13.29,27.9l-22.12-4.33a11.06,11.06,0,0,0-13.09,8.91l-6.76,38.25a11.5,11.5,0,0,0,9.16,13.21l22,4.25a178.32,178.32,0,0,0,2.65,31l-20.91,7.26a11,11,0,0,0-6.73,14.28l13.29,36.55a11.38,11.38,0,0,0,14.39,6.88l20.7-7.22a177.22,177.22,0,0,0,17.82,25.58l-14.17,16.62a11.13,11.13,0,0,0,1.36,15.71l29.5,25a11.16,11.16,0,0,0,15.71-1.2l14.13-16.57a174.71,174.71,0,0,0,27.9,13.36l-3.87,21.37a11.13,11.13,0,0,0,8.94,12.9l37.63,7a11,11,0,0,0,12.85-8.83l3.93-21.47a174.35,174.35,0,0,0,30.45-2.39l7.33,20.62a11,11,0,0,0,14.06,6.72l35.77-12.65a11,11,0,0,0,6.68-14l-7.3-20.71a170.76,170.76,0,0,0,24.9-17.27l16.69,14.39a10.9,10.9,0,0,0,15.44-1.18l24.6-28.84a11.09,11.09,0,0,0-1.17-15.55l-16.79-14.56a173.24,173.24,0,0,0,13-27.34l21.76,4.2a10.92,10.92,0,0,0,12.77-8.78l7-37.52A11.13,11.13,0,0,0,1550.72,1456.22Zm-110.58,66.7c-39.9,46.79-110.4,52.1-157.71,11.63-47.61-40.72-53.71-112.26-13.36-159.56s111.48-52,158.64-10.82C1474.59,1405.16,1480,1476.13,1440.14,1522.92Z"/><path class="cls-54" d="M1691.09,1161.82l-12.24-2.42a95.77,95.77,0,0,0-1.7-16.41l11.64-3.92a5.78,5.78,0,0,0,3.53-7.62l-7.44-19.73a6.35,6.35,0,0,0-7.86-3.81l-11.68,3.92a99.72,99.72,0,0,0-9.79-13.73l7.94-9.31a6.07,6.07,0,0,0-.87-8.54l-16.38-13.91a6.12,6.12,0,0,0-8.62.51l-7.95,9.32a101.1,101.1,0,0,0-15.27-7.46l2-12.2a6.41,6.41,0,0,0-5.1-7.19l-21-4.26a5.84,5.84,0,0,0-7.06,4.73l-2,12.2a98.92,98.92,0,0,0-16.78,1l-4.53-11.82a6.49,6.49,0,0,0-8-3.88l-19.94,6.63a5.8,5.8,0,0,0-3.55,7.71l4.51,11.71a90.24,90.24,0,0,0-13.74,9.2l-9.76-8.18a6.23,6.23,0,0,0-8.73.51l-13.44,15.76a6.09,6.09,0,0,0,1,8.61l9.7,8.1a88.46,88.46,0,0,0-7,15l-12.22-2.42a5.89,5.89,0,0,0-7.09,4.76l-3.25,20.59a6.4,6.4,0,0,0,5.19,7.15l12.15,2.38a95.61,95.61,0,0,0,1.83,16.75l-11.42,3.84a5.77,5.77,0,0,0-3.53,7.67l7.75,19.8a6.49,6.49,0,0,0,8,3.78l11.31-3.81a100.45,100.45,0,0,0,10.13,13.91l-7.6,8.92a6,6,0,0,0,.94,8.5l16.57,13.67a6.22,6.22,0,0,0,8.65-.57l7.59-8.91a100.35,100.35,0,0,0,15.57,7.37l-1.87,11.56a6.27,6.27,0,0,0,5.11,7l20.88,4a5.85,5.85,0,0,0,7-4.72l1.89-11.62a98.14,98.14,0,0,0,16.81-1.14l4.33,11.21a6.33,6.33,0,0,0,7.87,3.72l19.63-6.69a5.75,5.75,0,0,0,3.52-7.58l-4.32-11.26a91,91,0,0,0,13.56-9.25l9.44,7.88a6.1,6.1,0,0,0,8.54-.56l13.25-15.53a6,6,0,0,0-.87-8.44l-9.5-8a89.09,89.09,0,0,0,6.83-14.76l12.12,2.37a5.82,5.82,0,0,0,7-4.7l3.37-20.29A6.27,6.27,0,0,0,1691.09,1161.82Zm-60.33,35.65c-21.46,25.16-60.35,27.71-87,5.6s-31-60.86-9.35-86.22,60.79-27.69,87.37-5.27S1652.22,1172.31,1630.76,1197.47Z"/><path class="cls-55" d="M1553.38,1451l-22-4.31a178,178,0,0,0-2.32-30.3l21.2-7.39a11.1,11.1,0,0,0,6.72-14.13l-12.54-36.4a11,11,0,0,0-14-7l-21.29,7.39a177.75,177.75,0,0,0-17.08-25.31l14.78-17.33a11.35,11.35,0,0,0-1.2-15.81l-29-25.59a10.94,10.94,0,0,0-15.62,1l-14.83,17.38a174.83,174.83,0,0,0-27.33-13.68l4.14-22.65a11.49,11.49,0,0,0-8.93-13.29l-37.88-7.71a11,11,0,0,0-13,8.86l-4.1,22.68a174.67,174.67,0,0,0-30.49,1.93l-7.72-21.9a11.4,11.4,0,0,0-14.35-7.12L1270,1252.89a11.14,11.14,0,0,0-6.77,14.37L1271,1289a169.71,169.71,0,0,0-25.36,17.24l-17.4-15.09a11.2,11.2,0,0,0-15.9,1l-25.09,29.43a11.38,11.38,0,0,0,1.38,16l17.3,14.92a173.1,173.1,0,0,0-13.29,27.9l-22.12-4.33a11.07,11.07,0,0,0-13.09,8.91l-6.75,38.25a11.5,11.5,0,0,0,9.15,13.21l22,4.25a178.32,178.32,0,0,0,2.65,31l-20.91,7.26a11,11,0,0,0-6.73,14.28l13.29,36.55a11.39,11.39,0,0,0,14.39,6.88l20.7-7.22A176.5,176.5,0,0,0,1223,1555l-14.18,16.62a11.13,11.13,0,0,0,1.36,15.71l29.5,25a11.17,11.17,0,0,0,15.71-1.2l14.13-16.57a175.12,175.12,0,0,0,27.9,13.36l-3.87,21.37a11.13,11.13,0,0,0,9,12.9l37.62,7a11,11,0,0,0,12.86-8.83l3.92-21.47a174.35,174.35,0,0,0,30.45-2.39l7.33,20.62a11,11,0,0,0,14.06,6.72l35.77-12.66a11,11,0,0,0,6.68-14l-7.3-20.7a170.83,170.83,0,0,0,24.9-17.28l16.7,14.4a10.91,10.91,0,0,0,15.44-1.18l24.59-28.85a11.08,11.08,0,0,0-1.17-15.54l-16.79-14.57a171.54,171.54,0,0,0,13-27.34l21.76,4.2a10.91,10.91,0,0,0,12.77-8.77l7-37.52A11.13,11.13,0,0,0,1553.38,1451Zm-110.58,66.7c-39.9,46.79-110.4,52.1-157.71,11.62-47.6-40.71-53.7-112.25-13.36-159.55s111.48-52,158.64-10.82C1477.25,1399.93,1482.7,1470.91,1442.8,1517.7Z"/><path class="cls-56" d="M1693.76,1156.6l-12.25-2.42a94.58,94.58,0,0,0-1.7-16.41l11.64-3.92a5.79,5.79,0,0,0,3.53-7.62l-7.44-19.73a6.34,6.34,0,0,0-7.86-3.81l-11.68,3.92a99.72,99.72,0,0,0-9.79-13.73l7.94-9.31a6.08,6.08,0,0,0-.87-8.55l-16.38-13.9a6.12,6.12,0,0,0-8.62.5l-8,9.33a101.1,101.1,0,0,0-15.27-7.46l2-12.2a6.4,6.4,0,0,0-5.1-7.19l-21-4.27a5.84,5.84,0,0,0-7,4.73l-2,12.21a97.9,97.9,0,0,0-16.78,1l-4.52-11.82a6.5,6.5,0,0,0-8-3.88l-19.94,6.63a5.8,5.8,0,0,0-3.55,7.71l4.51,11.71a90.24,90.24,0,0,0-13.74,9.2l-9.76-8.18a6.23,6.23,0,0,0-8.73.51L1490,1085.36a6.08,6.08,0,0,0,1,8.61l9.69,8.1a89.24,89.24,0,0,0-7,15l-12.22-2.42a5.87,5.87,0,0,0-7.08,4.76l-3.26,20.58a6.4,6.4,0,0,0,5.19,7.16l12.15,2.38a95.61,95.61,0,0,0,1.83,16.75l-11.42,3.83a5.78,5.78,0,0,0-3.53,7.68l7.75,19.8a6.49,6.49,0,0,0,8,3.78l11.31-3.81a99.62,99.62,0,0,0,10.14,13.9l-7.61,8.92a6,6,0,0,0,.94,8.51l16.57,13.67a6.21,6.21,0,0,0,8.65-.58l7.59-8.9a101.27,101.27,0,0,0,15.57,7.37l-1.87,11.55a6.28,6.28,0,0,0,5.11,7l20.88,4a5.84,5.84,0,0,0,7-4.72l1.89-11.62a97.15,97.15,0,0,0,16.81-1.15l4.33,11.22a6.34,6.34,0,0,0,7.87,3.72l19.64-6.69a5.75,5.75,0,0,0,3.51-7.58l-4.32-11.27a90.4,90.4,0,0,0,13.56-9.24l9.44,7.88a6.1,6.1,0,0,0,8.54-.56l13.25-15.53a6,6,0,0,0-.87-8.44l-9.5-8a88.66,88.66,0,0,0,6.83-14.76l12.12,2.37a5.82,5.82,0,0,0,7-4.7l3.37-20.29A6.26,6.26,0,0,0,1693.76,1156.6Zm-60.34,35.65c-21.45,25.16-60.35,27.71-87,5.59s-31-60.85-9.36-86.22,60.8-27.68,87.37-5.26S1654.88,1167.09,1633.42,1192.25Z"/></g></g></g></svg>