<svg xmlns="http://www.w3.org/2000/svg" fill="none" viewBox="0 0 612 192">
            <g fill="white" clip-path="url(#clipShopify)">
              <path d="M130 38.3c-.6 0-13.7-1-13.7-1s-9.1-9.1-10.2-10c-.4-.4-.9-.6-1.3-.6l-7.3 150.6 52.8-11.4S131.8 40.7 131.7 39.8c-.4-.9-1.1-1.3-1.7-1.5z"></path>
              <path fill-rule="evenodd" d="M130 38.5c.6 0 1.4.4 1.5 1.3.033.301 2.126 14.49 4.893 33.25 5.503 37.316 13.673 92.717 13.607 92.85l-52.8 11.4-97.3-18.2S12.4 62.4 12.9 59c.6-4.5.7-4.6 5.5-6.1.38-.163 2.345-.766 5.435-1.714 2.612-.801 6.026-1.85 9.965-3.086 3.3-14 13.9-41.5 35.9-41.5 2.8 0 6.2 1.6 8.8 5h.9c9.5 0 14.8 8.1 17.9 17 3.1-1 5-1.6 5.1-1.6.8-.2 2.7-.5 3.7.5 1.1.9 10.2 10 10.2 10s13.1 1 13.7 1zm-46.3-5.9c2.9-1 5.8-1.9 8.2-2.6-2.1-6.4-5.2-11.9-10.2-12.5 1.3 3.5 2 7.9 2 13.3v1.8zm-5.9.8c0-6.6-.9-11.4-2.2-14.8-5.2 2.3-11.5 8.5-14.8 21.1a841.272 841.272 0 0110.377-3.245c2.251-.694 4.461-1.374 6.623-2.055v-1zm-5.8-20c-.8-.6-1.8-1-2.8-1-15.8 0-24.8 20.8-28.4 33.6a410.023 410.023 0 017.1-2.215c2.09-.639 4.224-1.29 6.4-1.985C57.4 25 64.9 16.7 72 13.4zm1 73.4l6.4-19.3s-4.4-2.6-13-2.5c-23.1 0-34.5 15.4-34.5 31.3 0 10.686 5.947 15.52 11.152 19.751 4.049 3.291 7.648 6.217 7.648 11.249 0 2.8-2 6.6-6.9 6.6-7.4 0-16.2-7.6-16.2-7.6l-4.5 14.8s8.4 10.4 25.2 10.4c13.9 0 24.2-10.5 24.2-26.8 0-12.53-8.427-18.721-15.08-23.608-4.337-3.187-7.92-5.819-7.92-9.292 0-1.6.5-8.1 10.8-8.1 6.9 0 12.7 3.1 12.7 3.1z" clip-rule="evenodd"></path>
              <path d="M211.6 103.8c-5.3-2.8-8-5.3-8-8.6 0-4.2 3.8-6.9 9.7-6.9 6.9 0 13 2.8 13 2.8l4.8-14.7s-4.4-3.4-17.4-3.4C195.6 73 183 83.4 183 98c0 8.3 5.9 14.6 13.7 19.1 6.4 3.5 8.6 6.1 8.6 9.9 0 3.9-3.2 7.1-9.1 7.1-8.7 0-17-4.5-17-4.5l-5.1 14.7s7.6 5.1 20.4 5.1c18.6 0 32.1-9.2 32.1-25.7-.2-9-6.9-15.2-15-19.9zm74.2-31c-9.2 0-16.4 4.4-21.9 11l-.2-.1 8-41.6H251l-20.2 106h20.7l6.9-36.2c2.7-13.7 9.8-22.2 16.4-22.2 4.7 0 6.5 3.2 6.5 7.7 0 2.8-.2 6.4-.9 9.2l-7.8 41.5h20.7l8.1-42.8c.9-4.5 1.5-9.9 1.5-13.6-.1-11.9-6.2-18.9-17.1-18.9zm63.9 0c-25 0-41.5 22.5-41.5 47.6 0 16 9.9 29 28.5 29 24.5 0 41-21.9 41-47.6.1-14.9-8.5-29-28-29zm-10.2 60.8c-7.1 0-10-6-10-13.6 0-11.9 6.1-31.2 17.4-31.2 7.3 0 9.8 6.4 9.8 12.5 0 12.7-6.3 32.3-17.2 32.3zm91.3-60.8c-14 0-21.9 12.4-21.9 12.4h-.2l1.2-11.1h-18.4c-.9 7.5-2.6 19-4.2 27.5L373 177.5h20.7l5.8-30.7h.5s4.3 2.7 12.1 2.7c24.4 0 40.3-25 40.3-50.2-.1-14-6.4-26.5-21.6-26.5zm-19.8 61c-5.4 0-8.6-3.1-8.6-3.1l3.4-19.3c2.4-13 9.2-21.5 16.4-21.5 6.4 0 8.3 5.9 8.3 11.4.1 13.4-7.9 32.5-19.5 32.5zm70.9-90.7c-6.6 0-11.9 5.3-11.9 12 0 6.1 3.9 10.4 9.8 10.4h.2c6.5 0 12-4.4 12.1-12 .1-6.1-4-10.4-10.2-10.4zm-29 104.9h20.7l14-73.6h-20.8L452.9 148zm87.5-73.7H526l.7-3.4c1.2-7.1 5.4-13.3 12.4-13.3 3.7 0 6.6 1.1 6.6 1.1l4-16.3s-3.5-1.8-11.3-1.8c-7.3 0-14.7 2.1-20.3 6.9-7.1 6-10.4 14.7-12 23.5l-.6 3.4h-9.7l-3.1 15.7h9.7l-11 58h20.7l11-58h14.3l3-15.8zm49.9.1s-13 32.7-18.7 50.6h-.2c-.4-5.8-5.1-50.6-5.1-50.6h-21.8l12.5 67.4c.2 1.5.1 2.4-.5 3.4-2.4 4.7-6.5 9.2-11.3 12.5-3.9 2.8-8.3 4.7-11.8 5.9l5.8 17.6c4.2-.9 13-4.4 20.3-11.3 9.4-8.8 18.2-22.5 27.2-41.1L612 74.3h-21.7v.1z"></path>
            </g>
            <defs>
              <clipPath id="clipShopify">
                <path fill="#fff" d="M0 0h612v192H0z"></path>
              </clipPath>
            </defs>
          </svg>