<svg xmlns="http://www.w3.org/2000/svg" fill="none" viewBox="0 0 601 122">
            <path fill="white" fill-rule="evenodd" d="M18.8.3C11.5.3 4.5 5.1 1.7 11.8.4 14.7.1 17.9.1 21c.05 10.3.05 20.625.05 30.962C.15 62.3.15 72.65.2 83c.1 9.5 8.4 18 17.9 18.3 11.359.043 22.718.031 34.069.018 15.13-.016 30.247-.032 45.331.082 7.26 3.9 14.412 7.908 21.564 11.916 4.768 2.672 9.536 5.344 14.336 7.984-1.35-3.35-2.7-6.675-4.05-10-1.35-3.325-2.7-6.65-4.05-10 6.7 0 13.4.011 20.1.022 13.4.022 26.8.045 40.2-.022 9.5-.2 17.8-8.8 17.9-18.3V19.6c.1-5.4-2.2-10.8-6.2-14.4-3.5-3.2-8.3-5-13.1-4.9H18.8zm74.8 14.5c-2.3-3.7-8.1-4.7-11.1-1.5-1.637 2-2.612 4.414-3.603 6.865l-.297.735c-4.9 12.7-6.8 26.4-8.3 39.9-3.5-8.9-5.9-18.3-7.7-27.7-.4-2.1-1-4.4-2.5-6-1.9-2-5.1-2.1-7.3-.7-1.6 1-2.7 2.7-3.6 4.4-6 11.5-12 22.9-18 34.3-3.6-14.3-6.1-28.8-8.3-43.4-.3-1.9-.7-4-2.2-5.3-2.1-1.9-5.4-1.7-7.9-.8-3.1 1.2-4.4 5-3.7 8.1l.43 2.612C12.483 44.249 15.445 62.247 20.5 79.7c.298.83.568 1.691.842 2.561 1.011 3.22 2.06 6.556 4.658 8.839 2.2 1.7 5.1.2 6.8-1.5 4-4 6.7-9.1 9.2-14.1 3.6-7.3 7.3-14.7 11-22 3.7 12.5 8.8 25 17.8 34.7 2 2.2 4.9 4.3 8 3.6 3.3-.8 4.8-4.5 4.6-7.6-.6-12.1 1-24.2 2.9-36.1 1.6-9.1 3.4-18.4 7.6-26.8 1-2 .9-4.6-.3-6.5zm40.7 12.1c-4.4-4.9-11.4-7.1-17.9-6.3-3.9.5-7.6 2.2-10.6 4.9-10.3 9.5-14.4 24.7-12 38.4 1.2 6 4.1 12 9.3 15.6 6.5 4.3 15.5 4.8 22.2.7 4.6-2.7 7.8-7.2 10.3-11.8 4.4-8.1 6.1-17.7 5-26.8-.7-5.3-2.7-10.6-6.3-14.7zm-23.4 14.2c1.7-2.6 3.7-5.5 6.8-6.5 2.2-.7 4.8.1 6.1 1.9 3.2 4.8 3.7 10.9 2.7 16.4-1 4.9-2.9 9.8-6.7 13.1-1.7 1.5-3.9 2.9-6.3 2.5-2.3-.4-3.7-2.5-4.6-4.4-3.4-7.3-2.2-16.2 2-23zm75-14.6c-4.4-4.7-11.3-6.7-17.6-5.9-4.3.5-8.4 2.7-11.8 5.7-10.4 10.8-14.2 27.6-9.7 41.9 1.7 4.7 4.6 9.1 8.9 11.7 6.4 3.8 15 4.2 21.4.3 4.8-2.8 8.1-7.4 10.6-12.1 4.2-7.8 5.8-17 4.9-25.8-.6-5.8-2.7-11.5-6.7-15.8zm-23.305 15.347c1.775-2.862 3.764-6.068 7.105-7.247 2.2-.7 4.8.1 6 1.8 2.9 4.2 3.7 9.5 3.1 14.4-.6 5.3-2.3 10.7-6.2 14.5-1.8 1.7-4 3.3-6.5 3.2-2.3-.1-4-2-4.9-4-3.5-7.1-2.5-15.8 1.3-22.5l.095-.153z" clip-rule="evenodd"></path>
            <path fill="white" fill-rule="evenodd" d="M237.7 22.5c5.5-1.2 11.3-1.1 16.8.2v13.5c-4.5-1.1-9.6-2.1-13.9 0-5.2 2.6-8.1 8.5-8.1 14.1-.3 5.6 1.6 11.9 6.6 15.1 4.6 3 10.5 2.4 15.5 1v13.5c-6.7 1.9-14 1.7-20.5-.7-7.8-2.9-14-9.7-16.4-17.7-1.8-6.1-2-12.6-.6-18.8 2.3-9.9 10.7-18 20.6-20.2zm40.6-.7c6.8-.8 14.2.3 19.7 4.6 5.3 4.1 7.9 10.8 8.9 17.2.9 7.1.7 14.5-1.5 21.3-1.9 5.8-5.8 11.2-11.4 13.9-5.7 2.7-12.4 2.9-18.5 1.5-5.6-1.3-10.6-5-13.4-10.1-3.9-6.8-4.6-14.9-4.3-22.6.3-6.6 2-13.5 6.4-18.6 3.6-4.1 8.8-6.6 14.1-7.2zm2.1 12.9c-2.9.7-4.6 3.6-5.3 6.3-1.4 5.4-1.2 11-.8 16.5.4 3 .7 6.2 2.8 8.6 2.8 3.2 8.5 2.8 11-.5 1.7-2.1 2.2-4.8 2.5-7.4.6-4.6.7-9.3 0-13.9-.5-2.8-1.3-5.7-3.3-7.8-1.8-1.8-4.5-2.4-6.9-1.8zm266.7-12c5.8-1.5 11.9-1.3 17.7-.1.1 4.5 0 9 .1 13.6-4.4-1.1-9.3-2.1-13.6-.2-5 2.3-8 7.6-8.4 12.9-.6 6 1 12.8 6.3 16.3 4.6 3.2 10.6 2.6 15.7 1.1-.1 4.5.1 9.1-.1 13.6-7.1 1.8-14.9 1.6-21.6-1.3-7.4-3.2-13.2-10-15.3-17.8-1.6-6-1.8-12.4-.3-18.5 2.2-9.4 10.1-17.1 19.5-19.6zm-231.3.4h19.3c2.3 10.4 4.5 20.9 6.5 31.4 1.8-10.6 4.3-21 6.8-31.4h19.8c2.6 18.9 5.1 37.8 7.6 56.6h-15.1c-1.4-12.9-2.6-25.9-4.1-38.8-3.1 12.9-6.3 25.9-9.4 38.8h-10.3c-3.3-12.9-6.5-25.9-9.9-38.9-1.3 12.9-2.6 25.9-3.9 38.9h-14.5c2.4-18.8 4.8-37.7 7.2-56.6zm69.2 0h19.3c2.3 10.4 4.5 20.9 6.5 31.4 1.9-10.5 4.3-21 6.8-31.4h19.7c2.6 18.9 5.1 37.8 7.6 56.6h-15.1c-1.4-12.9-2.7-25.9-4.1-38.8-3.1 12.9-6.2 25.9-9.4 38.8H406c-3.3-13-6.6-25.9-9.9-38.9-1.3 13-2.6 25.9-3.9 38.9h-14.5c2.5-18.8 4.9-37.7 7.3-56.6zm64.3.2c10.3-.2 20.7 0 31-.1v12.1c-5.2.1-10.4 0-15.6 0v10.4h13.5v11.7h-13.5v10.4h15.7v12.1h-31c-.1-18.9.1-37.7-.1-56.6zm35.4-.2c6.5 0 12.9-.1 19.4 0 6.1.2 12.6 1.7 17.1 6 4.1 3.8 5.5 10.1 3.9 15.4-1.3 4.3-4.5 7.8-8.5 9.7 4 8.5 8.1 17 12.2 25.5h-16.1c-4.2-8.7-8.3-17.4-12.6-26-.1 8.7 0 17.4 0 26h-15.3c-.1-18.8-.1-37.7-.1-56.6zM500 34v13.5c2.8-.2 5.8-.3 8.1-2 2.7-2 2.4-6.1.7-8.7-2.1-2.5-5.8-2.5-8.8-2.8zm69.2-10.8h30.9v12.1h-15.7v10.4h13.5v11.7h-13.5v10.4h15.8v12.1h-31c-.1-19 0-37.9 0-56.7z" clip-rule="evenodd"></path>
          </svg>